<?xml version="1.0" encoding="UTF-8" standalone="no"?>
<!-- Created with Inkscape (http://www.inkscape.org/) -->

<svg
   width="512"
   height="512"
   viewBox="0 0 135.46667 135.46667"
   version="1.1"
   id="svg1"
   xml:space="preserve"
   xmlns="http://www.w3.org/2000/svg"
   xmlns:svg="http://www.w3.org/2000/svg"><defs
     id="defs1" /><g
     id="layer1"
     style="display:inline;opacity:1;fill:#404040;fill-opacity:1"><path
       style="display:inline;opacity:1;fill:#fbc41f;fill-opacity:1;stroke-width:0.264583"
       d="M 8.832714,25.026023 25.946097,8.2806693 40.851303,16.929368 48.211897,13.801115 52.076208,0.36802974 h 26.498144 l 3.496283,13.80111526 7.54461,2.024164 15.457245,-8.0966545 17.2974,16.9293685 -9.01673,15.089219 3.12826,7.360595 16.37732,4.416356 0.55204,25.026026 -16.92936,4.048326 -2.76023,7.728625 8.46469,15.64126 -17.11339,17.2974 -15.089217,-8.83271 -8.096653,3.49628 -4.600374,16.74535 H 53.364314 L 48.579927,116.2974 40.483272,112.80112 25.210038,121.2658 8.2806693,104.52045 17.481413,88.879185 13.617101,81.15056 1.2881041,77.838291 0.7360595,51.524166 13.617101,47.659852 16.929368,40.299257 Z"
       id="path3" /><path
       style="display:inline;opacity:1;fill:#404040;fill-opacity:1;stroke-width:0.264583"
       d="m 27.050186,18.401487 14.537177,7.728625 13.985129,-5.520446 3.680299,-15.8252793 11.592936,0.1840148 4.968401,15.8252795 13.617102,4.784387 14.16914,-7.176581 8.28067,8.096656 -7.72862,13.617099 5.52045,14.35316 15.82527,4.048328 -0.18401,11.592936 -15.45725,4.600372 -6.07249,14.169147 8.09665,14.721185 -8.09665,7.54461 -13.985132,-7.91264 -14.905205,6.44053 -3.680296,15.08922 -11.960966,-0.36803 -4.416359,-14.90521 -14.35316,-6.25651 -13.617101,7.54461 -8.464684,-7.91264 8.648699,-13.985125 -6.07249,-14.72119 L 5.704461,70.477697 6.0724909,58.700746 21.16171,54.284389 27.602231,39.931227 19.321562,26.314127 Z"
       id="path2" /><path
       style="display:inline;opacity:1;fill:#fbc41f;fill-opacity:1;stroke-width:0.264583"
       d="m 61.092939,26.130112 19.505576,0.368031 -19.505576,57.41264 11.592936,-0.73606 -4.968402,14.905205 -29.994424,-0.184015 z"
       id="path1" /></g></svg>
